<svg width="180" height="180" viewBox="0 0 64 64" fill="none" xmlns="http://www.w3.org/2000/svg">
  <rect width="64" height="64" rx="18" fill="url(#bg)"/>
  <rect x="7" y="7" width="50" height="50" rx="14" stroke="url(#frame)" stroke-width="1.4" opacity="0.78"/>
  <path d="M20 28.2C20 25.9 21.9 24 24.2 24h15.6c2.3 0 4.2 1.9 4.2 4.2V45c0 2.2-1.8 4-4 4H24c-2.2 0-4-1.8-4-4V28.2Z" fill="url(#bag)"/>
  <path d="M25.5 25v-3.2c0-3.7 2.9-6.8 6.5-6.8s6.5 3.1 6.5 6.8V25" stroke="#F5D89C" stroke-width="3.2" stroke-linecap="round"/>
  <path d="M20.8 35.5h22.4" stroke="#08100D" stroke-opacity="0.22" stroke-width="1.8" stroke-linecap="round"/>
  <text x="32" y="43.5" text-anchor="middle" font-family="Arial, Helvetica, sans-serif" font-size="15" font-weight="800" letter-spacing="0" fill="#07110D">CB</text>
  <defs>
    <linearGradient id="bg" x1="8" y1="7" x2="56" y2="58" gradientUnits="userSpaceOnUse">
      <stop stop-color="#18201B"/>
      <stop offset="1" stop-color="#050706"/>
    </linearGradient>
    <linearGradient id="frame" x1="12" y1="8" x2="54" y2="57" gradientUnits="userSpaceOnUse">
      <stop stop-color="#F5D89C"/>
      <stop offset="0.48" stop-color="#00D4A4"/>
      <stop offset="1" stop-color="#8E5B2C"/>
    </linearGradient>
    <linearGradient id="bag" x1="20" y1="21" x2="45" y2="51" gradientUnits="userSpaceOnUse">
      <stop stop-color="#F2D6A3"/>
      <stop offset="0.42" stop-color="#C89152"/>
      <stop offset="1" stop-color="#00D4A4"/>
    </linearGradient>
  </defs>
</svg>
